<svg xmlns="http://www.w3.org/2000/svg" viewBox="0 0 800 600" role="img" aria-label="Jalebi">
  <defs>
    <linearGradient id="bg" x1="0" x2="1" y1="0" y2="1">
      <stop offset="0" stop-color="#FFFDF7"/>
      <stop offset="1" stop-color="#FFD76B"/>
    </linearGradient>
    <filter id="shadow" x="-20%" y="-20%" width="140%" height="140%">
      <feDropShadow dx="0" dy="18" stdDeviation="14" flood-color="#7A3512" flood-opacity=".22"/>
    </filter>
  </defs>
  <rect width="800" height="600" fill="url(#bg)"/>
  <ellipse cx="400" cy="432" rx="294" ry="72" fill="#78350F" opacity=".15"/>
  <g filter="url(#shadow)" fill="none" stroke-linecap="round">
    <path d="M270 312c-82-54 6-158 94-92 66 50-24 146-92 78-48-48 16-106 70-62 38 32-6 82-48 44" stroke="#FF8A00" stroke-width="48"/>
    <path d="M458 310c-76-50 0-148 82-92 62 42-10 142-82 86-52-40 6-102 58-66 36 26-2 78-42 46" stroke="#F36F21" stroke-width="48"/>
    <path d="M356 382c-72-42 0-132 78-82 54 36-4 120-70 74-42-30 2-88 50-58" stroke="#FFA51E" stroke-width="46"/>
  </g>
</svg>
