<svg xmlns="http://www.w3.org/2000/svg" viewBox="0 0 800 600" role="img" aria-label="Mysore Pak">
  <defs>
    <linearGradient id="bg" x1="0" x2="1" y1="0" y2="1">
      <stop offset="0" stop-color="#FFF5DF"/>
      <stop offset="1" stop-color="#FFD700"/>
    </linearGradient>
    <linearGradient id="sweet" x1="0" x2="1" y1="0" y2="1">
      <stop offset="0" stop-color="#FFE083"/>
      <stop offset=".52" stop-color="#F9B233"/>
      <stop offset="1" stop-color="#D77724"/>
    </linearGradient>
    <filter id="shadow" x="-20%" y="-20%" width="140%" height="140%">
      <feDropShadow dx="0" dy="18" stdDeviation="14" flood-color="#7B3D1A" flood-opacity=".22"/>
    </filter>
  </defs>
  <rect width="800" height="600" fill="url(#bg)"/>
  <ellipse cx="400" cy="436" rx="292" ry="72" fill="#6B341C" opacity=".16"/>
  <g filter="url(#shadow)">
    <rect x="186" y="182" width="168" height="132" rx="14" fill="url(#sweet)"/>
    <rect x="372" y="154" width="168" height="132" rx="14" fill="url(#sweet)"/>
    <rect x="286" y="296" width="168" height="132" rx="14" fill="url(#sweet)"/>
    <rect x="472" y="272" width="168" height="132" rx="14" fill="url(#sweet)"/>
  </g>
  <g stroke="#FFF1B8" stroke-width="6" opacity=".48">
    <path d="M218 222h98M406 196h98M320 338h98M506 314h98"/>
    <path d="M242 266h76M430 240h76M342 382h76M530 358h76"/>
  </g>
</svg>
